<?xml version="1.0" encoding="UTF-8"?>
<svg version="1.1" xmlns="http://www.w3.org/2000/svg" width="512" height="512">
<path d="M0 0 C20.46 0 40.92 0 62 0 C62 9.9 62 19.8 62 30 C81.8 30 101.6 30 122 30 C122 39.9 122 49.8 122 60 C131.9 60 141.8 60 152 60 C152 79.8 152 99.6 152 120 C171.14 120 190.28 120 210 120 C210 100.2 210 80.4 210 60 C219.9 60 229.8 60 240 60 C240 50.1 240 40.2 240 30 C259.8 30 279.6 30 300 30 C300 20.1 300 10.2 300 0 C320.46 0 340.92 0 362 0 C362 9.9 362 19.8 362 30 C371.9 30 381.8 30 392 30 C392 39.9 392 49.8 392 60 C401.9 60 411.8 60 422 60 C422 139.86 422 219.72 422 302 C402.2 302 382.4 302 362 302 C362 321.8 362 341.6 362 362 C342.2 362 322.4 362 302 362 C302 381.8 302 401.6 302 422 C282.2 422 262.4 422 242 422 C242 441.8 242 461.6 242 482 C201.74 482 161.48 482 120 482 C120 462.2 120 442.4 120 422 C100.2 422 80.4 422 60 422 C60 402.2 60 382.4 60 362 C40.2 362 20.4 362 0 362 C0 342.2 0 322.4 0 302 C-19.8 302 -39.6 302 -60 302 C-60 222.14 -60 142.28 -60 60 C-50.1 60 -40.2 60 -30 60 C-30 50.1 -30 40.2 -30 30 C-20.1 30 -10.2 30 0 30 C0 20.1 0 10.2 0 0 Z " fill="#FFFFFF" transform="translate(75,15)"/>
<path d="M0 0 C20.46 0 40.92 0 62 0 C62 9.9 62 19.8 62 30 C71.9 30 81.8 30 92 30 C92 39.9 92 49.8 92 60 C101.9 60 111.8 60 122 60 C122 69.9 122 79.8 122 90 C131.9 90 141.8 90 152 90 C152 130.26 152 170.52 152 212 C147.05 212 142.1 212 137 212 C137 216.95 137 221.9 137 227 C132.05 227 127.1 227 122 227 C122 231.95 122 236.9 122 242 C111.44 242 100.88 242 90 242 C90 237.05 90 232.1 90 227 C80.1 227 70.2 227 60 227 C60 222.05 60 217.1 60 212 C55.05 212 50.1 212 45 212 C45 202.1 45 192.2 45 182 C35.76 182 26.52 182 17 182 C17 191.9 17 201.8 17 212 C12.05 212 7.1 212 2 212 C2 216.95 2 221.9 2 227 C-7.9 227 -17.8 227 -28 227 C-28 231.95 -28 236.9 -28 242 C-38.56 242 -49.12 242 -60 242 C-60 237.05 -60 232.1 -60 227 C-64.95 227 -69.9 227 -75 227 C-75 222.05 -75 217.1 -75 212 C-79.95 212 -84.9 212 -90 212 C-90 171.74 -90 131.48 -90 90 C-80.1 90 -70.2 90 -60 90 C-60 80.1 -60 70.2 -60 60 C-50.1 60 -40.2 60 -30 60 C-30 50.1 -30 40.2 -30 30 C-20.1 30 -10.2 30 0 30 C0 20.1 0 10.2 0 0 Z " fill="#569894" transform="translate(225,150)"/>
</svg>
