<?xml version="1.0" encoding="UTF-8"?>
<svg version="1.1" xmlns="http://www.w3.org/2000/svg" width="512" height="512">
<path d="M0 0 C19.8 0 39.6 0 60 0 C60 9.9 60 19.8 60 30 C79.8 30 99.6 30 120 30 C120 39.9 120 49.8 120 60 C129.9 60 139.8 60 150 60 C150 79.8 150 99.6 150 120 C169.8 120 189.6 120 210 120 C210 100.2 210 80.4 210 60 C219.9 60 229.8 60 240 60 C240 50.1 240 40.2 240 30 C259.8 30 279.6 30 300 30 C300 20.1 300 10.2 300 0 C319.8 0 339.6 0 360 0 C360 9.9 360 19.8 360 30 C369.9 30 379.8 30 390 30 C390 39.9 390 49.8 390 60 C399.9 60 409.8 60 420 60 C420 139.2 420 218.4 420 300 C400.2 300 380.4 300 360 300 C360 319.8 360 339.6 360 360 C340.2 360 320.4 360 300 360 C300 379.8 300 399.6 300 420 C280.2 420 260.4 420 240 420 C240 439.8 240 459.6 240 480 C200.4 480 160.8 480 120 480 C120 460.2 120 440.4 120 420 C100.2 420 80.4 420 60 420 C60 400.2 60 380.4 60 360 C40.2 360 20.4 360 0 360 C0 340.2 0 320.4 0 300 C-19.8 300 -39.6 300 -60 300 C-60 220.8 -60 141.6 -60 60 C-50.1 60 -40.2 60 -30 60 C-30 50.1 -30 40.2 -30 30 C-20.1 30 -10.2 30 0 30 C0 20.1 0 10.2 0 0 Z " fill="#569894" transform="translate(76,16)"/>
<path d="M0 0 C19.8 0 39.6 0 60 0 C60 9.9 60 19.8 60 30 C69.9 30 79.8 30 90 30 C90 39.9 90 49.8 90 60 C99.9 60 109.8 60 120 60 C120 69.9 120 79.8 120 90 C129.9 90 139.8 90 150 90 C150 129.6 150 169.2 150 210 C145.05 210 140.1 210 135 210 C135 214.95 135 219.9 135 225 C130.05 225 125.1 225 120 225 C120 229.95 120 234.9 120 240 C110.1 240 100.2 240 90 240 C90 235.05 90 230.1 90 225 C80.1 225 70.2 225 60 225 C60 220.05 60 215.1 60 210 C55.05 210 50.1 210 45 210 C45 200.1 45 190.2 45 180 C35.1 180 25.2 180 15 180 C15 189.9 15 199.8 15 210 C10.05 210 5.1 210 0 210 C0 214.95 0 219.9 0 225 C-9.9 225 -19.8 225 -30 225 C-30 229.95 -30 234.9 -30 240 C-39.9 240 -49.8 240 -60 240 C-60 235.05 -60 230.1 -60 225 C-64.95 225 -69.9 225 -75 225 C-75 220.05 -75 215.1 -75 210 C-79.95 210 -84.9 210 -90 210 C-90 170.4 -90 130.8 -90 90 C-80.1 90 -70.2 90 -60 90 C-60 80.1 -60 70.2 -60 60 C-50.1 60 -40.2 60 -30 60 C-30 50.1 -30 40.2 -30 30 C-20.1 30 -10.2 30 0 30 C0 20.1 0 10.2 0 0 Z " fill="#FFFFFF" transform="translate(226,151)"/>
</svg>
